HIERARCHY
ROOT Hips
{
 OFFSET 0.000000 0.000000 0.000000
 CHANNELS 6 Xposition Yposition Zposition Yrotation Xrotation Zrotation
 JOINT Chest
 {
  OFFSET 0.000000 10.383400 0.001500
  CHANNELS 3 Yrotation Xrotation Zrotation
  JOINT Chest2
  {
   OFFSET 0.000000 10.418200 -0.003100
   CHANNELS 3 Yrotation Xrotation Zrotation
   JOINT Chest3
   {
    OFFSET 0.000000 10.375100 0.000000
    CHANNELS 3 Yrotation Xrotation Zrotation
    JOINT Chest4
    {
     OFFSET 0.000000 10.364600 0.000000
     CHANNELS 3 Yrotation Xrotation Zrotation
     JOINT Neck
     {
      OFFSET 0.000000 15.642200 0.000000
      CHANNELS 3 Yrotation Xrotation Zrotation
      JOINT Head
      {
       OFFSET 0.000000 9.697300 -0.006500
       CHANNELS 3 Yrotation Xrotation Zrotation
       End Site
       {
        OFFSET 0.000000 18.492200 -0.003400
       }
      }
     }
     JOINT RightCollar
     {
      OFFSET -3.166800 10.349300 0.000000
      CHANNELS 3 Yrotation Xrotation Zrotation
      JOINT RightShoulder
      {
       OFFSET -14.729700 0.000000 0.000000
       CHANNELS 3 Yrotation Xrotation Zrotation
       JOINT RightElbow
       {
        OFFSET 0.000000 -32.224300 0.000000
        CHANNELS 3 Yrotation Xrotation Zrotation
        JOINT RightWrist
        {
         OFFSET 0.000000 -26.084100 0.000000
         CHANNELS 3 Yrotation Xrotation Zrotation
         End Site
         {
          OFFSET 0.000000 -19.319400 0.000000
         }
        }
       }
      }
     }
     JOINT LeftCollar
     {
      OFFSET 3.166800 10.349300 0.000000
      CHANNELS 3 Yrotation Xrotation Zrotation
      JOINT LeftShoulder
      {
       OFFSET 14.729700 0.000000 0.000000
       CHANNELS 3 Yrotation Xrotation Zrotation
       JOINT LeftElbow
       {
        OFFSET 0.000000 -32.224300 0.000000
        CHANNELS 3 Yrotation Xrotation Zrotation
        JOINT LeftWrist
        {
         OFFSET 0.000000 -26.084100 0.000000
         CHANNELS 3 Yrotation Xrotation Zrotation
         End Site
         {
          OFFSET 0.000000 -19.319400 0.000000
         }
        }
       }
      }
     }
    }
   }
  }
 }
 JOINT RightHip
 {
  OFFSET -8.428900 -0.007500 -0.000800
  CHANNELS 3 Yrotation Xrotation Zrotation
  JOINT RightKnee
  {
   OFFSET 0.000000 -43.834600 0.000700
   CHANNELS 3 Yrotation Xrotation Zrotation
   JOINT RightAnkle
   {
    OFFSET 0.000000 -42.757000 0.001200
    CHANNELS 3 Yrotation Xrotation Zrotation
    JOINT RightToe
    {
     OFFSET 0.000000 -6.946900 15.649300
     CHANNELS 3 Yrotation Xrotation Zrotation
     End Site
     {
      OFFSET 0.000000 -1.580800 6.825800
     }
    }
   }
  }
 }
 JOINT LeftHip
 {
  OFFSET 8.428900 -0.007500 -0.000800
  CHANNELS 3 Yrotation Xrotation Zrotation
  JOINT LeftKnee
  {
   OFFSET 0.000000 -43.834600 0.000700
   CHANNELS 3 Yrotation Xrotation Zrotation
   JOINT LeftAnkle
   {
    OFFSET 0.000000 -42.757000 0.001200
    CHANNELS 3 Yrotation Xrotation Zrotation
    JOINT LeftToe
    {
     OFFSET 0.000000 -6.946900 15.649300
     CHANNELS 3 Yrotation Xrotation Zrotation
     End Site
     {
      OFFSET 0.000000 -1.580800 6.825800
     }
    }
   }
  }
 }
}
MOTION
Frames: 6
Frame Time: 0.008333
-3.491349 126.464495 1.231560 171.714281 -20.031399 -1.737094 -4.583788 22.937523 1.618317 -0.693281 3.368419 0.336927 -1.123135 5.436974 0.545733 -3.839432 19.226440 1.483231 -3.176433 14.468346 0.149452 -3.387258 -10.501842 0.891460 4.368334 -0.969043 -8.879931 15.951854 -23.785347 -2.023949 133.961902 -44.124312 -142.934523 13.086998 23.354221 -23.058775 -7.172400 0.200451 0.538744 -3.291581 -33.684575 0.242948 158.325221 -56.323241 -172.254682 -29.229763 32.077525 -17.348518 11.694161 -52.033414 6.061248 -41.965388 81.656767 -39.982127 -3.862773 -19.489830 8.058699 -0.003893 -0.003697 -0.001728 4.387531 -50.208138 -3.780361 103.211150 80.331271 108.199329 8.550109 -16.313082 -8.690334 -0.004100 0.000921 -0.001820
-3.488890 126.464722 1.235481 171.710630 -20.033255 -1.736088 -4.594413 22.940768 1.631061 -0.695015 3.371230 0.337719 -1.127216 5.441715 0.546817 -3.852095 19.232110 1.484221 -3.199950 14.467800 0.160101 -3.358963 -10.520689 0.853262 4.424209 -0.948259 -8.875614 15.957005 -23.818336 -2.054404 134.053246 -44.166211 -143.025250 13.082961 23.350041 -23.089921 -7.170682 0.242712 0.514762 -3.347045 -33.700526 0.210592 158.453504 -56.313944 -172.345213 -29.114509 32.029622 -17.222567 11.714018 -52.037745 6.055061 -41.928064 81.659859 -39.940804 -3.876619 -19.478763 8.059982 -0.003742 -0.006064 -0.001661 4.361904 -50.210007 -3.744537 103.237914 80.339986 108.208587 8.539249 -16.310266 -8.690888 0.001126 0.002457 0.000500
-3.488216 126.465487 1.237388 171.708437 -20.044079 -1.724321 -4.613603 22.952894 1.633609 -0.697261 3.373383 0.335114 -1.143854 5.456792 0.561116 -3.861022 19.226858 1.467804 -3.206164 14.465967 0.156201 -3.359292 -10.536935 0.843361 4.482049 -0.927470 -8.870110 15.961093 -23.852547 -2.085244 134.136594 -44.210421 -143.088667 13.051312 23.336285 -23.150507 -7.164924 0.284306 0.490174 -3.416422 -33.707574 0.170470 158.431527 -56.310469 -172.296670 -29.090041 31.950906 -17.097452 11.739728 -52.031325 6.037707 -41.982355 81.661762 -39.991229 -3.875160 -19.473120 8.050420 -0.000835 -0.006574 -0.000371 4.367067 -50.200335 -3.747753 103.247593 80.344256 108.213124 8.534809 -16.306662 -8.689901 0.002349 0.002323 0.001043
-3.488881 126.467091 1.236783 171.706572 -20.067804 -1.703236 -4.628838 22.976302 1.618594 -0.714895 3.386451 0.355656 -1.140694 5.460808 0.548518 -3.872473 19.228496 1.464514 -3.209408 14.459842 0.147580 -3.361914 -10.547451 0.840628 4.523505 -0.922011 -8.870238 16.032624 -23.906799 -2.062412 134.039241 -44.201624 -143.008269 12.969593 23.312477 -23.222398 -7.170411 0.315015 0.469288 -3.460047 -33.724728 0.138552 158.412921 -56.307161 -172.260932 -29.011621 31.881593 -16.959350 11.776875 -52.006974 6.006403 -42.031903 81.662598 -40.033030 -3.878128 -19.474089 8.041890 0.001473 -0.005694 0.000654 4.385299 -50.174278 -3.767808 103.238433 80.348681 108.198333 8.527676 -16.303847 -8.684004 0.000366 0.000523 0.000163
-3.488074 126.468106 1.238379 171.702600 -20.080224 -1.690936 -4.640002 22.993751 1.614994 -0.716934 3.391900 0.356029 -1.143842 5.468987 0.548938 -3.884912 19.234182 1.466744 -3.208925 14.447074 0.136554 -3.370277 -10.557201 0.843646 4.549320 -0.938061 -8.886598 16.103921 -23.930693 -2.043415 134.067474 -44.229204 -143.047314 12.978174 23.299808 -23.278707 -7.198624 0.386824 0.445802 -3.488511 -33.789010 0.119466 158.405486 -56.300320 -172.235408 -28.895324 31.813012 -16.804831 11.798084 -51.994266 5.992188 -42.057348 81.662937 -40.054245 -3.881265 -19.478390 8.025163 0.001119 -0.005562 0.000497 4.395172 -50.159132 -3.776251 103.231553 80.361959 108.190115 8.533788 -16.301412 -8.683688 -0.000582 0.001268 -0.000258
-3.486813 126.468975 1.240750 171.696202 -20.089085 -1.680412 -4.648058 23.009731 1.613424 -0.713155 3.390713 0.350052 -1.150932 5.485263 0.554987 -3.892826 19.243452 1.467128 -3.215888 14.436680 0.134900 -3.376630 -10.573047 0.843570 4.589644 -0.936789 -8.875549 16.162048 -23.958876 -2.065051 134.085520 -44.242873 -143.088373 12.986878 23.293008 -23.335440 -7.221104 0.421755 0.423922 -3.531417 -33.824981 0.108940 158.479655 -56.293707 -172.280137 -28.703996 31.746519 -16.622209 11.817859 -51.986651 5.982345 -42.091787 81.662269 -40.086562 -3.881935 -19.480394 8.020609 0.001688 -0.005793 0.000749 4.402654 -50.147999 -3.778274 103.218088 80.366164 108.173965 8.523253 -16.301697 -8.680806 -0.002837 0.002429 -0.001259
